<svg width="24" height="24" viewBox="0 0 24 24" fill="none" xmlns="http://www.w3.org/2000/svg">
<rect width="24" height="24" fill="#E5E5E5"/>
<g id="Pagina incial" clip-path="url(#clip0_37_94)" filter="url(#filter0_d_37_94)">
<rect width="428" height="2231" transform="translate(-90 -230)" fill="white"/>
<g id="Frame 24" clip-path="url(#clip1_37_94)">
<rect width="428" height="215" transform="translate(-90 -149)" fill="url(#paint0_linear_37_94)"/>
<g id="Group 40">
<g id="Vector 1" filter="url(#filter1_f_37_94)">
<path d="M-100.94 45.3647C-60.9356 60.0935 32.5274 84.7065 86.346 65.3288C153.619 41.1067 168.565 -12.4524 261.673 -14.8729C354.781 -17.2934 390.083 0.992392 428.093 -42.5187" stroke="white" stroke-width="0.25"/>
</g>
<g id="Vector 2" filter="url(#filter2_f_37_94)">
<path d="M-98.6657 -191.325C-61.8982 -148.456 25.2063 -60.5251 79.4848 -51.7571C147.333 -40.797 168.325 -98.4788 258.408 -44.4984C348.491 9.48209 380.286 53.911 422.286 22.8873" stroke="white" stroke-width="0.25"/>
</g>
<g id="Vector 3" filter="url(#filter3_f_37_94)">
<path d="M382.854 -25.9169C344.009 -12.9726 252.662 12.0119 198.03 8.39508C129.739 3.87406 111.65 -22.9829 19.0179 -12.5497C-73.6138 -2.11645 -107.572 12.1441 -147.963 -6.41484" stroke="white" stroke-width="0.25"/>
</g>
</g>
<rect id="Rectangle 30" opacity="0.75" x="-90" y="-149" width="428" height="215" fill="url(#paint1_linear_37_94)"/>
<g id="Frame 24_2">
<g id="Pesquisa" clip-path="url(#clip2_37_94)">
<path id="Vector" d="M15.5 14H14.71L14.43 13.73C15.41 12.59 16 11.11 16 9.5C16 5.91 13.09 3 9.5 3C5.91 3 3 5.91 3 9.5C3 13.09 5.91 16 9.5 16C11.11 16 12.59 15.41 13.73 14.43L14 14.71V15.5L19 20.49L20.49 19L15.5 14ZM9.5 14C7.01 14 5 11.99 5 9.5C5 7.01 7.01 5 9.5 5C11.99 5 14 7.01 14 9.5C14 11.99 11.99 14 9.5 14Z" fill="white"/>
</g>
<rect x="-65.5" y="-9.5" width="379" height="43" rx="21.5" stroke="white"/>
</g>
</g>
</g>
<defs>
<filter id="filter0_d_37_94" x="-154" y="-294" width="572" height="2375" filterUnits="userSpaceOnUse" color-interpolation-filters="sRGB">
<feFlood flood-opacity="0" result="BackgroundImageFix"/>
<feColorMatrix in="SourceAlpha" type="matrix" values="0 0 0 0 0 0 0 0 0 0 0 0 0 0 0 0 0 0 127 0" result="hardAlpha"/>
<feMorphology radius="8" operator="dilate" in="SourceAlpha" result="effect1_dropShadow_37_94"/>
<feOffset dx="8" dy="8"/>
<feGaussianBlur stdDeviation="32"/>
<feComposite in2="hardAlpha" operator="out"/>
<feColorMatrix type="matrix" values="0 0 0 0 0 0 0 0 0 0 0 0 0 0 0 0 0 0 0.25 0"/>
<feBlend mode="normal" in2="BackgroundImageFix" result="effect1_dropShadow_37_94"/>
<feBlend mode="normal" in="SourceGraphic" in2="effect1_dropShadow_37_94" result="shape"/>
</filter>
<filter id="filter1_f_37_94" x="-111.993" y="-53.5977" width="551.174" height="137.193" filterUnits="userSpaceOnUse" color-interpolation-filters="sRGB">
<feFlood flood-opacity="0" result="BackgroundImageFix"/>
<feBlend mode="normal" in="SourceGraphic" in2="BackgroundImageFix" result="shape"/>
<feGaussianBlur stdDeviation="5.5" result="effect1_foregroundBlur_37_94"/>
</filter>
<filter id="filter2_f_37_94" x="-106.735" y="-199.404" width="537.102" height="240.66" filterUnits="userSpaceOnUse" color-interpolation-filters="sRGB">
<feFlood flood-opacity="0" result="BackgroundImageFix"/>
<feBlend mode="normal" in="SourceGraphic" in2="BackgroundImageFix" result="shape"/>
<feGaussianBlur stdDeviation="4" result="effect1_foregroundBlur_37_94"/>
</filter>
<filter id="filter3_f_37_94" x="-167.016" y="-45.0352" width="568.908" height="72.9102" filterUnits="userSpaceOnUse" color-interpolation-filters="sRGB">
<feFlood flood-opacity="0" result="BackgroundImageFix"/>
<feBlend mode="normal" in="SourceGraphic" in2="BackgroundImageFix" result="shape"/>
<feGaussianBlur stdDeviation="9.5" result="effect1_foregroundBlur_37_94"/>
</filter>
<linearGradient id="paint0_linear_37_94" x1="178.829" y1="-25.8001" x2="767.418" y2="129.347" gradientUnits="userSpaceOnUse">
<stop stop-color="#002F52"/>
<stop offset="1" stop-color="#326589"/>
</linearGradient>
<linearGradient id="paint1_linear_37_94" x1="88.8287" y1="-174.8" x2="677.418" y2="-19.6533" gradientUnits="userSpaceOnUse">
<stop stop-color="#002F52"/>
<stop offset="1" stop-color="#326589"/>
</linearGradient>
<clipPath id="clip0_37_94">
<rect width="428" height="2231" fill="white" transform="translate(-90 -230)"/>
</clipPath>
<clipPath id="clip1_37_94">
<rect width="428" height="215" fill="white" transform="translate(-90 -149)"/>
</clipPath>
<clipPath id="clip2_37_94">
<rect width="24" height="24" fill="white"/>
</clipPath>
</defs>
</svg>
